<svg xmlns="http://www.w3.org/2000/svg" xmlns:xlink="http://www.w3.org/1999/xlink" width="1927" height="34" viewBox="0 0 1927 34"><defs><style>.a{fill:none;}.b{clip-path:url(#a);}.c{fill:#99c9e8;}</style><clipPath id="a"><rect class="a" width="1927" height="34"/></clipPath></defs><g class="b"><g transform="translate(2 -456)"><circle class="c" cx="17" cy="17" r="17" transform="translate(-2 456)"/><circle class="c" cx="17" cy="17" r="17" transform="translate(28 456)"/></g><g transform="translate(66 -456)"><circle class="c" cx="17" cy="17" r="17" transform="translate(-2 456)"/><circle class="c" cx="17" cy="17" r="17" transform="translate(28 456)"/></g><g transform="translate(130 -456)"><circle class="c" cx="17" cy="17" r="17" transform="translate(-2 456)"/><circle class="c" cx="17" cy="17" r="17" transform="translate(28 456)"/></g><g transform="translate(194 -456)"><circle class="c" cx="17" cy="17" r="17" transform="translate(-2 456)"/><circle class="c" cx="17" cy="17" r="17" transform="translate(28 456)"/></g><g transform="translate(258 -456)"><circle class="c" cx="17" cy="17" r="17" transform="translate(-2 456)"/><circle class="c" cx="17" cy="17" r="17" transform="translate(28 456)"/></g><g transform="translate(322 -456)"><circle class="c" cx="17" cy="17" r="17" transform="translate(-2 456)"/><circle class="c" cx="17" cy="17" r="17" transform="translate(28 456)"/></g><g transform="translate(386 -456)"><circle class="c" cx="17" cy="17" r="17" transform="translate(-2 456)"/><circle class="c" cx="17" cy="17" r="17" transform="translate(28 456)"/></g><g transform="translate(450 -456)"><circle class="c" cx="17" cy="17" r="17" transform="translate(-2 456)"/><circle class="c" cx="17" cy="17" r="17" transform="translate(28 456)"/></g><g transform="translate(514 -456)"><circle class="c" cx="17" cy="17" r="17" transform="translate(-2 456)"/><circle class="c" cx="17" cy="17" r="17" transform="translate(28 456)"/></g><g transform="translate(578 -456)"><circle class="c" cx="17" cy="17" r="17" transform="translate(-2 456)"/><circle class="c" cx="17" cy="17" r="17" transform="translate(28 456)"/></g><g transform="translate(642 -456)"><circle class="c" cx="17" cy="17" r="17" transform="translate(-2 456)"/><circle class="c" cx="17" cy="17" r="17" transform="translate(28 456)"/></g><g transform="translate(706 -456)"><circle class="c" cx="17" cy="17" r="17" transform="translate(-2 456)"/><circle class="c" cx="17" cy="17" r="17" transform="translate(28 456)"/></g><g transform="translate(770 -456)"><circle class="c" cx="17" cy="17" r="17" transform="translate(-2 456)"/><circle class="c" cx="17" cy="17" r="17" transform="translate(28 456)"/></g><g transform="translate(834 -456)"><circle class="c" cx="17" cy="17" r="17" transform="translate(-2 456)"/><circle class="c" cx="17" cy="17" r="17" transform="translate(28 456)"/></g><g transform="translate(898 -456)"><circle class="c" cx="17" cy="17" r="17" transform="translate(-2 456)"/><circle class="c" cx="17" cy="17" r="17" transform="translate(28 456)"/></g><g transform="translate(962 -456)"><circle class="c" cx="17" cy="17" r="17" transform="translate(-2 456)"/><circle class="c" cx="17" cy="17" r="17" transform="translate(28 456)"/></g><g transform="translate(1026 -456)"><circle class="c" cx="17" cy="17" r="17" transform="translate(-2 456)"/><circle class="c" cx="17" cy="17" r="17" transform="translate(28 456)"/></g><g transform="translate(1090 -456)"><circle class="c" cx="17" cy="17" r="17" transform="translate(-2 456)"/><circle class="c" cx="17" cy="17" r="17" transform="translate(28 456)"/></g><g transform="translate(1154 -456)"><circle class="c" cx="17" cy="17" r="17" transform="translate(-2 456)"/><circle class="c" cx="17" cy="17" r="17" transform="translate(28 456)"/></g><g transform="translate(1218 -456)"><circle class="c" cx="17" cy="17" r="17" transform="translate(-2 456)"/><circle class="c" cx="17" cy="17" r="17" transform="translate(28 456)"/></g><g transform="translate(1282 -456)"><circle class="c" cx="17" cy="17" r="17" transform="translate(-2 456)"/><circle class="c" cx="17" cy="17" r="17" transform="translate(28 456)"/></g><g transform="translate(1346 -456)"><circle class="c" cx="17" cy="17" r="17" transform="translate(-2 456)"/><circle class="c" cx="17" cy="17" r="17" transform="translate(28 456)"/></g><g transform="translate(1410 -456)"><circle class="c" cx="17" cy="17" r="17" transform="translate(-2 456)"/><circle class="c" cx="17" cy="17" r="17" transform="translate(28 456)"/></g><g transform="translate(1474 -456)"><circle class="c" cx="17" cy="17" r="17" transform="translate(-2 456)"/><circle class="c" cx="17" cy="17" r="17" transform="translate(28 456)"/></g><g transform="translate(1538 -456)"><circle class="c" cx="17" cy="17" r="17" transform="translate(-2 456)"/><circle class="c" cx="17" cy="17" r="17" transform="translate(28 456)"/></g><g transform="translate(1602 -456)"><circle class="c" cx="17" cy="17" r="17" transform="translate(-2 456)"/><circle class="c" cx="17" cy="17" r="17" transform="translate(28 456)"/></g><g transform="translate(1666 -456)"><circle class="c" cx="17" cy="17" r="17" transform="translate(-2 456)"/><circle class="c" cx="17" cy="17" r="17" transform="translate(28 456)"/></g><g transform="translate(1730 -456)"><circle class="c" cx="17" cy="17" r="17" transform="translate(-2 456)"/><circle class="c" cx="17" cy="17" r="17" transform="translate(28 456)"/></g><g transform="translate(1794 -456)"><circle class="c" cx="17" cy="17" r="17" transform="translate(-2 456)"/><circle class="c" cx="17" cy="17" r="17" transform="translate(28 456)"/></g><g transform="translate(1858 -456)"><circle class="c" cx="17" cy="17" r="17" transform="translate(-2 456)"/><circle class="c" cx="17" cy="17" r="17" transform="translate(28 456)"/></g><g transform="translate(1922 -456)"><circle class="c" cx="17" cy="17" r="17" transform="translate(-2 456)"/><circle class="c" cx="17" cy="17" r="17" transform="translate(28 456)"/></g></g></svg>