<svg xmlns="http://www.w3.org/2000/svg" width="848.273" height="322.558" viewBox="0 0 848.273 322.558"><defs><style>.a{fill:#de4560;}.b{fill:#c71651;}</style></defs><g transform="translate(-14.345 -20.757)"><path class="a" d="M67.829,47.325C54.334,41.952,41.051,36.293,28.11,30.34c15.053,6.434,29.534,11.7,39.719,16.985" transform="translate(98.478 68.561)"/><path class="a" d="M49.315,40.549A254.632,254.632,0,0,1,25.146,28.913Q37.01,34.894,49.315,40.549" transform="translate(77.273 58.352)"/><g transform="translate(14.345 20.757)"><path class="a" d="M862.6,91.538c.921,53.116-31.4,101.136-65.519,139.094-41.562,46.234-93.569,83.531-153.82,100.8-88.5,25.368-183.216,7.257-266.576-27.373-96.627-40.151-179.669-106.428-256.2-176.57Q65.4,77.024,14.566,22.195c-.669-.718.31-1.81,1.166-1.313,51.86,30.048,106.24,56.476,160.148,81.982-.872-.351-1.753-.685-2.634-1.036.457.236.987.473,1.427.7,20.948,11.334,96.561,50.6,118.235,60.569,49.463,22.766,99.864,37.02,153.812,45.394.628.1,1.248.2,1.867.285,134.1,20.173,274.787-12.313,382.52-94.107,3.327-2.528,18.583-17.213,29.265-24.935.734.383,1.378.718,1.835.954a.687.687,0,0,1,.334.359,1.87,1.87,0,0,1,.057.489" transform="translate(-14.345 -20.757)"/><path class="b" d="M249.974,143.171a521.626,521.626,0,0,0,159.079-10.3A547.2,547.2,0,0,0,633.57,24.1a.782.782,0,0,1,.848-.106c25.1,10.625,76.078,37.688,88.375,44.122-10.315,8.048-27.773,21.454-31.1,23.981C583.96,173.888,443.268,206.374,309.173,186.2c-.62-.09-1.239-.188-1.867-.285-53.948-8.374-104.349-22.628-153.812-45.394C131.82,130.549,56.207,91.278,35.251,79.952c-.432-.236-.962-.473-1.419-.7.881.342,1.753.685,2.634,1.027q14.788,7.009,29.518,13.927c57.536,27.1,120.681,43.511,183.99,48.966" transform="translate(125.069 1.821)"/></g></g></svg>