<svg xmlns="http://www.w3.org/2000/svg" width="406.943" height="260.07" viewBox="0 0 406.943 260.07"><defs><style>.a{fill:#a88413;}.b{fill:#17b5c8;}.c{fill:#027ca4;}</style></defs><g transform="translate(-166.207 -16.257)"><path class="a" d="M217.415,35.324l.043.016-.059-.027.016.011" transform="translate(222.992 83.009)"/><path class="b" d="M219.532,47.832c.1-1.312.1-2.624.118-3.937-.016,1.307-.037,2.619-.118,3.937" transform="translate(232.282 120.391)"/><path class="c" d="M219.554,46.217c.011-.953.048-1.907.021-2.855.027.953-.005,1.907-.021,2.855" transform="translate(232.378 118.069)"/><path class="c" d="M236.616,44.63c-1.928,26.309-17.664,50.748-21.006,55.263,1.334-1.842,2.657-3.7,3.958-5.592,9.2-13.738,15.966-32,17.048-49.672" transform="translate(215.198 123.592)"/><path class="b" d="M166.848,199.137c16.973-13.32,31.868-22.3,48.1-32.345,6.315-4.146,13.786-8.746,20.915-12.71,25.736-14.317,50.373-32.12,78.016-42.468,25.205-9.432,57.7-18.173,84.614-19.3,106.681-4.467,71.224,80.356,32.082,131.5.059-.07.172-.236.236-.327-18.639,25.7-39.688,46.072-47.417,52.419-.177.145.038.466.262.418,3.846-.809,18.366-5.281,20.7-6.026q21.25-6.781,41.777-15.6c35.259-15.168,70.067-35.023,96.419-63.372,29.817-32.088,38.569-79.215,23.068-120.071C543.343,12.566,463.779,10.5,412.126,21.419,356.975,33.074,310.726,66.1,266.4,99.772c-26.876,20.412-48.493,44.648-72.633,68.23-6.315,6.175-20.578,22.881-27.391,30.561-.407.461-.011.953.471.573" transform="translate(0 0)"/><path class="c" d="M358.852,30.6c-26.914,1.125-59.414,9.866-84.62,19.3-27.642,10.348-52.275,28.151-78.016,42.468-7.124,3.963-14.6,8.564-20.91,12.71a406.174,406.174,0,0,1,94.978-43.314c33.989-10.412,79.183-24.054,113.5-8.232,16.539,7.616,24.793,21.033,27.487,36.3.123.637.241,1.275.348,1.912.177,1.237.3,2.491.407,3.744.129,1.414.252,2.817.284,4.231.027.948-.011,1.9-.021,2.855-.021,1.318-.021,2.63-.118,3.937-1.082,17.669-7.852,35.933-17.048,49.677q-1.952,2.828-3.958,5.586c-.07.091-.182.257-.236.327,39.142-51.139,74.593-135.962-32.082-131.5" transform="translate(39.638 61.721)"/></g></svg>