<?xml version="1.0" encoding="utf-8"?>
<!-- Generator: Adobe Illustrator 25.1.0, SVG Export Plug-In . SVG Version: 6.00 Build 0)  -->
<svg version="1.1" id="Layer_1" xmlns="http://www.w3.org/2000/svg" xmlns:xlink="http://www.w3.org/1999/xlink" x="0px" y="0px"
	 viewBox="0 0 256 256" enable-background="new 0 0 256 256" xml:space="preserve">
<g>
	<path fill="#FFFFFF" d="M129.3,71.8c17.7,0,32-14.4,32-32s-14.4-32-32-32c-17.7,0-32,14.4-32,32S111.6,71.8,129.3,71.8z
		 M129.3,12.5c15,0,27.2,12.2,27.2,27.2S144.3,67,129.3,67c-15,0-27.2-12.2-27.2-27.2S114.2,12.5,129.3,12.5z"/>
	<path fill="#FFFFFF" d="M245.5,137.5c-3.9-3.6-8.6-3.5-9.4-3.5h-35.6c-2-7.3-9.9-33.9-21.6-41.7c-5.6-3.7-15.9-6.6-30.5-8.6
		C137,82.2,125,82,113.1,83.2C100.4,84.4,92,86,88.2,88c-8.8,4.4-13.1,7.5-19.6,20.8c-6.6,13.5-10.9,22.1-12.5,25.2H22
		c-0.2,0-15.1,0.2-15.1,19.2c0,5.5,1.7,9.9,5,12.9c5.3,4.8,12.8,4.4,14,4.3l39.5,0.3c2.7,0,5.2-1.1,7-3c3.3-3.4,9.7-10.9,14.5-21
		v34.7l-41,28.7c-1.2,0.7-12.5,8.2-9.6,20.8c1.6,6.7,7.2,12.1,14.4,13.7l16.9,3.7c0.2,0,0.3,0.1,0.5,0.1c1.1,0,2.1-0.8,2.3-1.9
		c0.3-1.3-0.5-2.6-1.8-2.9L51.7,240c-5.4-1.2-9.7-5.2-10.8-10.1c-2.2-9.6,7.1-15.4,7.5-15.7c0,0,0.1-0.1,0.1-0.1l42.1-29.5
		c0.6-0.4,1-1.2,1-2v-50.5c0-1.2-0.9-2.3-2.2-2.4c-1.2-0.1-2.3,0.7-2.6,1.9c-3.1,15.7-13.6,28.1-18,32.7c-0.9,0.9-2.1,1.5-3.4,1.5
		c0,0,0,0,0,0l-39.6-0.3c-0.1,0-0.2,0-0.3,0c-0.1,0-6.5,0.6-10.5-3.1c-2.3-2.1-3.4-5.2-3.4-9.3c0-13.9,9.3-14.4,10.3-14.4h35.6
		c0.9,0,1.7-0.5,2.1-1.3c0-0.1,4.7-9.4,13.2-26.6c5.9-12,9.5-14.7,17.4-18.6c3.2-1.6,11.5-3.1,23.2-4.3c11.6-1.1,23.2-1,34.4,0.5
		c13.7,1.8,23.5,4.5,28.4,7.8c4.7,3.2,9.7,11.1,14.3,23c3.6,9.2,5.7,17.6,5.7,17.7c0.3,1.1,1.2,1.8,2.3,1.8h37.5c0.1,0,0.1,0,0.2,0
		c0,0,3.3-0.2,5.9,2.2c2.3,2.2,3.5,5.8,3.5,10.8c0,4.7-1.2,8.1-3.6,10.3c-3.4,3-8.2,2.6-8.2,2.6c-0.1,0-0.2,0-0.3,0h-35.9
		c-5.9,0-11.3-2.9-14.5-7.8c-0.6-0.9-1.2-2-1.8-3.1c-6.4-11.6-14.4-22.9-14.5-23c-0.6-0.8-1.7-1.2-2.7-0.9c-1,0.3-1.7,1.2-1.7,2.3
		l0,42.1l0,3.5c0,0.5,0.1,0.9,0.4,1.3c4.6,7,10.4,10.8,16.4,14.9c1.4,1,2.9,2,4.5,3.1c12.4,8.8,26.8,19.3,27,19.4
		c0.4,0.3,9,6.5,4.3,14.2c-0.6,1-1.1,1.9-1.7,2.8c-4.6,7.6-6.1,10.2-15.5,10.2l-96.9,0c0,0-3.6-0.1-7.1-2c-4.4-2.4-6.6-6.7-6.6-12.7
		c0-0.1,0-0.2,0-0.3c0-0.1-0.8-7.9,3.6-12.9c2.5-2.8,6.4-4.3,11.5-4.3h58.8c1.3,0,2.4-1.1,2.4-2.4s-1.1-2.4-2.4-2.4h-58.8
		c-6.5,0-11.6,2-15.1,5.9c-5.5,6.2-4.9,15.1-4.8,16.4c0.1,18.9,18.3,19.3,18.5,19.3H198c12.1,0,15-4.7,19.7-12.5
		c0.5-0.9,1.1-1.8,1.6-2.7c5.6-9.2-1.2-17.5-5.6-20.6c-0.1-0.1-14.6-10.6-27.1-19.4c-1.6-1.1-3.1-2.1-4.6-3.1
		c-5.7-3.8-10.7-7.2-14.7-13l0-2.8V140c2.8,4.3,6.6,10.1,9.9,16.1c0.7,1.2,1.3,2.3,2,3.4c4.1,6.3,11,10,18.5,10h35.8
		c1.1,0.1,7.1,0.4,11.7-3.8c3.5-3.1,5.2-7.8,5.2-13.9C250.6,145.5,248.9,140.7,245.5,137.5z"/>
</g>
</svg>
