<?xml version="1.0" encoding="utf-8"?>
<!-- Generator: Adobe Illustrator 25.1.0, SVG Export Plug-In . SVG Version: 6.00 Build 0)  -->
<svg version="1.1" id="Layer_1" xmlns="http://www.w3.org/2000/svg" xmlns:xlink="http://www.w3.org/1999/xlink" x="0px" y="0px"
	 viewBox="0 0 256 256" enable-background="new 0 0 256 256" xml:space="preserve">
<g>
	<path fill="#FFFFFF" d="M128.5,50.5c10.9,0,19.8-8.9,19.8-19.8c0-10.9-8.9-19.8-19.8-19.8s-19.8,8.9-19.8,19.8
		C108.8,41.6,117.6,50.5,128.5,50.5z M128.5,16.2c8,0,14.5,6.5,14.5,14.5s-6.5,14.5-14.5,14.5S114,38.8,114,30.8
		S120.5,16.2,128.5,16.2z"/>
	<path fill="#FFFFFF" d="M177.1,167.5c-0.5-1.4-2-2.1-3.4-1.6c-1.4,0.5-2.1,2-1.6,3.4l26,71.5c0.4,1.1,1.4,1.7,2.5,1.7
		c0.3,0,0.6-0.1,0.9-0.2c1.4-0.5,2.1-2,1.6-3.4L177.1,167.5z"/>
	<path fill="#FFFFFF" d="M244.1,239.9l-34.7-65.3c-0.7-1.3-2.3-1.8-3.5-1.1c-1.3,0.7-1.8,2.3-1.1,3.5l34.7,65.3
		c0.5,0.9,1.4,1.4,2.3,1.4c0.4,0,0.8-0.1,1.2-0.3C244.3,242.8,244.8,241.2,244.1,239.9z"/>
	<path fill="#FFFFFF" d="M55.4,166.3c-1.3-0.7-2.9-0.2-3.6,1l-40,72.6c-0.7,1.3-0.2,2.9,1,3.6c0.4,0.2,0.8,0.3,1.3,0.3
		c0.9,0,1.8-0.5,2.3-1.4l40-72.6C57.2,168.6,56.7,167,55.4,166.3z"/>
	<path fill="#FFFFFF" d="M75,191.3c-1.4-0.5-2.9,0.3-3.3,1.7l-15.2,46.2c-0.5,1.4,0.3,2.9,1.7,3.3c0.3,0.1,0.5,0.1,0.8,0.1
		c1.1,0,2.1-0.7,2.5-1.8l15.2-46.2C77.1,193.3,76.4,191.8,75,191.3z"/>
	<path fill="#FFFFFF" d="M198.4,130c3.6,0,7-1.4,9.5-3.9c5.2-5.2,5.2-13.7,0-18.9L185.7,85c-15.2-15.2-35.6-23.9-56-23.9
		c-0.1,0-0.2,0-0.3,0c-1.1,0-2.2,0-3.3,0.1c-17.9,0.8-35,8.6-48.3,21.9L62.9,98c-0.1,0.1-0.1,0.1-0.2,0.2c-3,3.7-2.8,9,0.6,12.4
		l16.6,16.6c2.4,2.4,5.6,3.7,9.1,3.7c3.4,0,6.7-1.3,9.1-3.7c5-5,5-13.1,0-18.1l-7.6-8.3l6.6-5.4c1.1-0.9,1.3-2.6,0.4-3.7
		c-0.9-1.1-2.6-1.3-3.7-0.4L85,98.4c-0.6,0.5-0.9,1.1-1,1.8s0.2,1.4,0.7,2l9.6,10.3c0,0,0,0,0.1,0.1c1.4,1.4,2.2,3.3,2.2,5.4
		c0,2-0.8,3.9-2.2,5.4c-1.4,1.4-3.3,2.2-5.4,2.2c-2,0-3.9-0.8-5.4-2.2L67,106.8c-1.4-1.4-1.6-3.7-0.3-5.2l14.8-14.8
		c12.4-12.4,28.3-19.6,44.8-20.4c1,0,2.1-0.1,3.1-0.1c0.1,0,0.2,0,0.3,0c19.1,0,38.1,8.1,52.3,22.3l22.2,22.2
		c3.2,3.2,3.2,8.4,0,11.5c-1.5,1.5-3.6,2.4-5.8,2.4s-4.2-0.8-5.8-2.4l-34.9-34.9c-0.7-0.7-1.7-0.9-2.6-0.7c-0.9,0.3-1.6,1.1-1.8,2
		l-0.3,1.8c0,0.2,0,0.3,0,0.5v55.1h-21.7V83.4c0-1.4-1.2-2.6-2.6-2.6s-2.6,1.2-2.6,2.6v62.8h-21.4v-13.1c0-1.4-1.2-2.6-2.6-2.6
		c-1.4,0-2.6,1.2-2.6,2.6v95c0,8.8,7.1,15.9,15.9,15.9c8.8,0,15.9-7.1,15.9-15.9v-21.4c2.9,2.8,6.8,4.5,11,4.5
		c8.8,0,15.9-7.1,15.9-15.9V95.3l30.8,30.8C191.5,128.6,194.8,130,198.4,130z M142.2,205.9c-5.9,0-10.7-4.8-10.7-10.7
		c0-0.5-0.1-0.9-0.3-1.3v-19.5c0-1.4-1.2-2.6-2.6-2.6s-2.6,1.2-2.6,2.6v53.6c0,5.9-4.8,10.7-10.7,10.7c-5.9,0-10.7-4.8-10.7-10.7
		v-76.6h48.4v43.7C152.9,201.1,148.1,205.9,142.2,205.9z"/>
</g>
</svg>
