<?xml version="1.0" encoding="utf-8"?>
<!-- Generator: Adobe Illustrator 25.1.0, SVG Export Plug-In . SVG Version: 6.00 Build 0)  -->
<svg version="1.1" id="Layer_1" xmlns="http://www.w3.org/2000/svg" xmlns:xlink="http://www.w3.org/1999/xlink" x="0px" y="0px"
	 viewBox="0 0 256 256" enable-background="new 0 0 256 256" xml:space="preserve">
<g>
	<path fill="#FFFFFF" d="M213.6,74.4l10.9-14.2c3.8-5,2.8-12.1-2.1-15.9c-2.4-1.8-5.4-2.6-8.4-2.2c-3,0.4-5.7,2-7.5,4.4L195,61.3
		c-0.2,0.3-0.4,0.7-0.5,1c-12-5.7-25.3-9.1-39.3-9.5V39.4c15.4-0.7,26.8-7.1,26.8-15.5c0-8.9-12.6-15.5-29.4-15.5
		s-29.4,6.7-29.4,15.5c0,8.3,11.2,14.7,26.5,15.5v13.5c-14.5,0.4-28.3,4-40.6,10.1c0-0.6-0.2-1.2-0.6-1.7L97.1,46.4
		c-3.8-5-11-5.9-16-2.1c-5,3.8-5.9,11-2.1,16l11.4,14.8C68.8,93,55,120.1,55,150.3c0,53.8,43.7,97.5,97.5,97.5
		c53.8,0,97.5-43.7,97.5-97.5C250,119.7,235.8,92.3,213.6,74.4z M199.4,64.7l11.4-14.9c0.9-1.2,2.3-2,3.9-2.3
		c1.6-0.2,3.1,0.2,4.4,1.1c2.6,2,3.1,5.7,1.1,8.3l-10.9,14.2c-3.2-2.3-6.5-4.4-10-6.3C199.3,64.7,199.4,64.7,199.4,64.7z
		 M128.7,23.9c0-4.8,9.8-10.1,23.9-10.1c14.1,0,23.9,5.3,23.9,10.1c0,4.5-8.6,9.4-21.3,10v-11c0-1.5-1.2-2.7-2.7-2.7
		c-1.5,0-2.7,1.2-2.7,2.7v11C137.2,33.2,128.7,28.3,128.7,23.9z M83.5,56.9c-2-2.6-1.5-6.3,1.1-8.3c2.6-2,6.3-1.5,8.3,1.1l11.5,14.9
		c0.2,0.3,0.4,0.5,0.7,0.6c-3.5,2-6.9,4.1-10.1,6.5L83.5,56.9z M152.5,242.4c-50.7,0-92-41.3-92-92c0-50.7,41.3-92,92-92
		c50.7,0,92,41.3,92,92C244.5,201.1,203.2,242.4,152.5,242.4z"/>
	<path fill="#FFFFFF" d="M24.9,91.9h29.4c1.5,0,2.7-1.2,2.7-2.7c0-1.5-1.2-2.7-2.7-2.7H24.9c-1.5,0-2.7,1.2-2.7,2.7
		C22.2,90.6,23.4,91.9,24.9,91.9z"/>
	<path fill="#FFFFFF" d="M10.3,121.6h29.4c1.5,0,2.7-1.2,2.7-2.7c0-1.5-1.2-2.7-2.7-2.7H10.3c-1.5,0-2.7,1.2-2.7,2.7
		C7.5,120.4,8.8,121.6,10.3,121.6z"/>
	<path fill="#FFFFFF" d="M40.3,148.7c0-1.5-1.2-2.7-2.7-2.7H8.2c-1.5,0-2.7,1.2-2.7,2.7s1.2,2.7,2.7,2.7h29.4
		C39,151.4,40.3,150.2,40.3,148.7z"/>
	<path fill="#FFFFFF" d="M44,178.4c0-1.5-1.2-2.7-2.7-2.7H12c-1.5,0-2.7,1.2-2.7,2.7c0,1.5,1.2,2.7,2.7,2.7h29.4
		C42.8,181.2,44,180,44,178.4z"/>
	<path fill="#FFFFFF" d="M52.2,205.5H22.9c-1.5,0-2.7,1.2-2.7,2.7c0,1.5,1.2,2.7,2.7,2.7h29.4c1.5,0,2.7-1.2,2.7-2.7
		C54.9,206.7,53.7,205.5,52.2,205.5z"/>
	<circle fill="#FFFFFF" cx="152.5" cy="74.3" r="4.7"/>
	<path fill="#FFFFFF" d="M128.9,83.2c2.4-0.9,3.7-3.6,2.8-6s-3.6-3.7-6-2.8c-2.4,0.9-3.7,3.6-2.8,6
		C123.8,82.9,126.5,84.1,128.9,83.2z"/>
	<path fill="#FFFFFF" d="M108.3,95.3c2-1.7,2.2-4.6,0.6-6.6c-1.7-2-4.6-2.2-6.6-0.6c-2,1.7-2.2,4.6-0.6,6.6
		C103.4,96.7,106.3,96.9,108.3,95.3z"/>
	<path fill="#FFFFFF" d="M86.6,115.4c2.2,1.3,5.1,0.5,6.4-1.7c1.3-2.2,0.5-5.1-1.7-6.4c-2.2-1.3-5.1-0.5-6.4,1.7
		C83.6,111.2,84.4,114.1,86.6,115.4z"/>
	<path fill="#FFFFFF" d="M79.5,140c2.5,0.4,5-1.2,5.4-3.8c0.4-2.5-1.2-5-3.8-5.4c-2.5-0.4-5,1.2-5.4,3.8
		C75.3,137.1,77,139.5,79.5,140z"/>
	<circle fill="#FFFFFF" cx="80.4" cy="160.9" r="4.7"/>
	<path fill="#FFFFFF" d="M86.9,180.8c-2.2,1.3-3,4.1-1.7,6.4c1.3,2.2,4.1,3,6.4,1.7c2.2-1.3,3-4.1,1.7-6.4
		C92,180.3,89.1,179.5,86.9,180.8z"/>
	
		<ellipse transform="matrix(0.4479 -0.8941 0.8941 0.4479 -124.3496 207.3576)" fill="#FFFFFF" cx="105.7" cy="204.4" rx="4.7" ry="4.7"/>
	<path fill="#FFFFFF" d="M129.5,212.7c-2.4-0.9-5.1,0.4-6,2.8c-0.9,2.4,0.4,5.1,2.8,6c2.4,0.9,5.1-0.4,6-2.8
		C133.2,216.2,131.9,213.5,129.5,212.7z"/>
	
		<ellipse transform="matrix(0.9871 -0.1602 0.1602 0.9871 -33.4857 27.3751)" fill="#FFFFFF" cx="153.1" cy="221.4" rx="4.7" ry="4.7"/>
	<path fill="#FFFFFF" d="M176.6,212.5c-2.4,0.9-3.7,3.6-2.8,6c0.9,2.4,3.6,3.7,6,2.8s3.7-3.6,2.8-6
		C181.7,212.8,179,211.6,176.6,212.5z"/>
	<path fill="#FFFFFF" d="M197.3,200.4c-2,1.7-2.2,4.6-0.6,6.6c1.7,2,4.6,2.2,6.6,0.6c2-1.7,2.2-4.6,0.6-6.6
		C202.2,199,199.2,198.8,197.3,200.4z"/>
	<path fill="#FFFFFF" d="M218.9,180.3c-2.2-1.3-5.1-0.5-6.4,1.7c-1.3,2.2-0.5,5.1,1.7,6.4c2.2,1.3,5.1,0.5,6.4-1.7
		C221.9,184.5,221.2,181.6,218.9,180.3z"/>
	<path fill="#FFFFFF" d="M226,155.7c-2.5-0.4-5,1.2-5.4,3.8c-0.4,2.5,1.2,5,3.8,5.4c2.5,0.4,5-1.2,5.4-3.8
		C230.3,158.6,228.6,156.2,226,155.7z"/>
	<path fill="#FFFFFF" d="M220.5,135.6c0.4,2.5,2.9,4.2,5.4,3.8c2.5-0.4,4.2-2.9,3.8-5.4c-0.4-2.5-2.9-4.2-5.4-3.8
		C221.8,130.7,220.1,133.1,220.5,135.6z"/>
	
		<ellipse transform="matrix(0.9411 -0.3382 0.3382 0.9411 -24.7422 79.6976)" fill="#FFFFFF" cx="216.3" cy="110.8" rx="4.7" ry="4.7"/>
	<path fill="#FFFFFF" d="M203.4,94.3c1.7-2,1.4-4.9-0.6-6.6s-4.9-1.4-6.6,0.6c-1.7,2-1.4,4.9,0.6,6.6
		C198.8,96.6,201.7,96.3,203.4,94.3z"/>
	<path fill="#FFFFFF" d="M176.1,83c2.4,0.9,5.1-0.4,6-2.8c0.9-2.4-0.4-5.1-2.8-6c-2.4-0.9-5.1,0.4-6,2.8S173.6,82.2,176.1,83z"/>
	<path fill="#FFFFFF" d="M152.4,110.7c-1,0-2,0.6-2.4,1.6c-2.3,4.9-13.8,30.1-10.1,39.1c3.7,9,11,9.4,12.5,9.3c0.2,0,0.3,0,0.6,0
		c2.3,0,8.1-0.9,12.1-9.2c5-10.5-8.6-36.4-10.2-39.3C154.4,111.3,153.5,110.7,152.4,110.7z M160.1,149.1c-3.1,6.4-7.1,6.1-7.2,6.1
		c-0.1,0-0.2,0-0.4,0c-0.1,0-0.2,0-0.3,0c-0.5,0-4.9,0.1-7.4-5.9c-1.7-4.3,2.9-18.4,7.7-29.5C157.5,130.1,162.6,144,160.1,149.1z"/>
</g>
</svg>
