<svg xmlns="http://www.w3.org/2000/svg" xmlns:xlink="http://www.w3.org/1999/xlink" width="1920" height="1080" viewBox="0 0 1920 1080">
  <defs>
    <clipPath id="clip-path">
      <rect id="Rectangle_1" data-name="Rectangle 1" width="1920" height="1080"/>
    </clipPath>
  </defs>
  <g id="login-bg" clip-path="url(#clip-path)">
    <g id="login-bg-2" data-name="login-bg" clip-path="url(#clip-path)">
      <path id="Path_10830" data-name="Path 10830" d="M-15967-23544.709s725.03,608.092,1231.017,531.3,691.049-587.613,691.049-587.613v746.412H-15967Z" transform="translate(15966 23935.021)" fill="#31332c"/>
      <g id="Group_4461" data-name="Group 4461" transform="translate(1270.793 158.742)">
        <path id="Path_10824" data-name="Path 10824" d="M217.415,35.324l.043.016-.059-.027.016.011" transform="translate(222.992 83.009)" fill="#a88413"/>
        <path id="Path_10825" data-name="Path 10825" d="M219.532,47.832c.1-1.312.1-2.624.118-3.937-.016,1.307-.037,2.619-.118,3.937" transform="translate(232.282 120.391)" fill="#17b5c8"/>
        <path id="Path_10826" data-name="Path 10826" d="M219.554,46.217c.011-.953.048-1.907.021-2.855.027.953-.005,1.907-.021,2.855" transform="translate(232.378 118.069)" fill="#027ca4"/>
        <path id="Path_10827" data-name="Path 10827" d="M236.616,44.63c-1.928,26.309-17.664,50.748-21.006,55.263,1.334-1.842,2.657-3.7,3.958-5.592,9.2-13.738,15.966-32,17.048-49.672" transform="translate(215.198 123.592)" fill="#027ca4"/>
        <path id="Path_10828" data-name="Path 10828" d="M166.848,199.137c16.973-13.32,31.868-22.3,48.1-32.345,6.315-4.146,13.786-8.746,20.915-12.71,25.736-14.317,50.373-32.12,78.016-42.468,25.2-9.432,57.7-18.173,84.614-19.3,106.681-4.467,71.224,80.356,32.082,131.5.059-.07.172-.236.236-.327-18.639,25.7-39.688,46.072-47.417,52.419-.177.145.038.466.262.418,3.846-.809,18.366-5.281,20.7-6.026q21.25-6.781,41.777-15.6c35.259-15.168,70.067-35.023,96.419-63.372,29.817-32.088,38.569-79.215,23.068-120.071C543.343,12.566,463.779,10.5,412.126,21.419,356.975,33.074,310.726,66.1,266.4,99.772c-26.876,20.412-48.493,44.648-72.633,68.23-6.315,6.175-20.578,22.881-27.391,30.561-.407.461-.011.953.471.573" fill="#17b5c8"/>
        <path id="Path_10829" data-name="Path 10829" d="M358.852,30.6c-26.914,1.125-59.414,9.866-84.62,19.3-27.642,10.348-52.275,28.151-78.016,42.468-7.124,3.963-14.6,8.564-20.91,12.71a406.174,406.174,0,0,1,94.978-43.314c33.989-10.412,79.183-24.054,113.5-8.232,16.539,7.616,24.793,21.033,27.487,36.3.123.637.241,1.275.348,1.912.177,1.237.3,2.491.407,3.744.129,1.414.252,2.817.284,4.231.027.948-.011,1.9-.021,2.855-.021,1.318-.021,2.63-.118,3.937-1.082,17.669-7.852,35.933-17.048,49.677q-1.952,2.828-3.958,5.586c-.07.091-.182.257-.236.327,39.142-51.139,74.593-135.962-32.082-131.5" transform="translate(39.638 61.721)" fill="#027ca4"/>
      </g>
      <g id="Group_4460" data-name="Group 4460" transform="translate(-208.344 544.243)">
        <path id="Path_10820" data-name="Path 10820" d="M67.829,47.325C54.334,41.952,41.051,36.293,28.11,30.34c15.053,6.434,29.534,11.7,39.719,16.985" transform="translate(98.478 68.561)" fill="#de4560"/>
        <path id="Path_10821" data-name="Path 10821" d="M49.315,40.549A254.644,254.644,0,0,1,25.146,28.913Q37.01,34.894,49.315,40.549" transform="translate(77.273 58.352)" fill="#de4560"/>
        <g id="Group_4459" data-name="Group 4459" transform="translate(14.345 20.757)">
          <path id="Path_10822" data-name="Path 10822" d="M862.6,91.538c.921,53.116-31.4,101.136-65.519,139.094-41.562,46.234-93.569,83.531-153.82,100.8-88.5,25.368-183.216,7.257-266.576-27.373-96.627-40.151-179.669-106.428-256.2-176.57Q65.4,77.024,14.566,22.195c-.669-.718.31-1.81,1.166-1.313,51.86,30.048,106.24,56.476,160.148,81.982-.872-.351-1.753-.685-2.634-1.036.457.236.987.473,1.427.7,20.948,11.334,96.561,50.6,118.235,60.569,49.463,22.766,99.864,37.02,153.812,45.394.628.1,1.248.2,1.867.285,134.1,20.173,274.787-12.313,382.52-94.107,3.327-2.528,18.583-17.213,29.265-24.935.734.383,1.378.718,1.835.954a.687.687,0,0,1,.334.359,1.87,1.87,0,0,1,.057.489" transform="translate(-14.345 -20.757)" fill="#de4560"/>
          <path id="Path_10823" data-name="Path 10823" d="M249.974,143.171a521.63,521.63,0,0,0,159.079-10.3A547.2,547.2,0,0,0,633.57,24.1a.782.782,0,0,1,.848-.106c25.1,10.625,76.078,37.688,88.375,44.122-10.315,8.048-27.773,21.454-31.1,23.981-107.733,81.791-248.425,114.277-382.52,94.1-.62-.09-1.239-.188-1.867-.285-53.948-8.374-104.349-22.628-153.812-45.394-21.674-9.969-97.287-49.24-118.243-60.566-.432-.236-.962-.473-1.419-.7.881.342,1.753.685,2.634,1.027q14.788,7.009,29.518,13.927c57.536,27.1,120.681,43.511,183.99,48.966" transform="translate(125.069 1.821)" fill="#c71651"/>
        </g>
      </g>
    </g>
  </g>
</svg>
