<svg xmlns="http://www.w3.org/2000/svg" width="1994.582" height="1125.214" viewBox="0 0 1994.582 1125.214"><defs><style>.a{opacity:0.172;}.b{fill:#fff;}.c{fill:#f3f8fc;}</style></defs><g class="a" transform="translate(-26.418 -24.786)"><g transform="translate(163 179)"><path class="b" d="M112.5,0,225,196H0Z" transform="translate(249.787 697.586) rotate(-74)"/><path class="b" d="M72.071,0l72.071,125.564H0Z" transform="matrix(0.946, 0.326, -0.326, 0.946, -95.702, -154.214)"/><path class="b" d="M70,0l70,122H0Z" transform="translate(1600.27 74.232) rotate(-150)"/><circle class="b" cx="18.5" cy="18.5" r="18.5" transform="translate(134 74)"/><path class="b" d="M54,0A54,54,0,1,1,0,54,54,54,0,0,1,54,0Z" transform="translate(-48 542)"/><circle class="b" cx="138.5" cy="138.5" r="138.5" transform="translate(1581 694)"/></g><rect class="c" width="141" height="141" transform="translate(1331.041 646.455) rotate(-49)"/></g></svg>