<svg xmlns="http://www.w3.org/2000/svg" width="256" height="90" viewBox="0 0 256 90">
  <defs>
    <linearGradient id="notask-a" x1="50%" x2="50%" y1="0%" y2="78.216%">
      <stop offset="0%" stop-color="#FFF"/>
      <stop offset="100%" stop-color="#C2E8FF"/>
    </linearGradient>
  </defs>
  <g fill="none" fill-rule="evenodd" transform="matrix(-1 0 0 1 278 -38)">
    <g transform="rotate(-180 57 55.5)">
      <ellipse cx="31.78" cy="31.767" stroke="#E3F7FF" stroke-dasharray="67.5 .5 .5 9" stroke-linecap="round" stroke-linejoin="round" stroke-width="3" rx="22.5" ry="22.607" transform="rotate(-130 31.78 31.767)"/>
      <ellipse cx="31.579" cy="31.607" stroke="#E3F7FF" stroke-dasharray="53.5 5" stroke-linecap="round" stroke-linejoin="round" stroke-width="3" rx="16.5" ry="16.578" transform="rotate(150 31.579 31.607)"/>
      <circle cx="31.5" cy="31.5" r="12.5" fill="#E3F7FF" fill-rule="nonzero"/>
      <g stroke="#C2E8FF" stroke-width="3" transform="translate(19 19)">
        <circle cx="12.5" cy="12.5" r="11"/>
      </g>
    </g>
    <g transform="translate(39 83.905)">
      <polyline fill="#FFF" fill-rule="nonzero" points=".852 40.281 41.132 0 64.387 22.84"/>
      <g stroke="#C2E8FF" stroke-linecap="round" stroke-linejoin="round" stroke-width="3">
        <polyline points=".852 40.281 41.132 0 64.387 22.84"/>
        <polyline points="61.065 19.102 69.37 12.043 100.931 41.111"/>
      </g>
    </g>
    <g fill="#C2E8FF" fill-rule="nonzero" transform="translate(38 87)">
      <path d="M37.5286844,31.6367641 C37.9146149,31.8755142 37.9730892,32.2053226 37.7976662,32.5173636 C37.5579215,32.9471139 36.5626887,33.1625443 35.3791686,32.5384624 C35.3756602,32.9826488 35.3616263,33.481248 35.3323892,34.0631321 C35.3148469,34.3962719 35.0832886,35.1869237 35.2961351,35.3890285 C35.8107091,35.8776335 35.9744371,36.2774012 35.8574885,36.7893261 C35.7931668,37.0724949 35.387355,37.2812624 34.8926624,37.4078556 C34.4845117,37.5355592 33.9839715,37.621065 33.4717366,37.5444429 L33.4705671,37.5444429 C32.1654204,37.4433905 31.6485075,37.1935356 31.6742361,36.6560701 C31.6765752,36.5816689 31.690609,36.5006049 31.7151682,36.4106572 C31.8204219,36.0364301 31.9128114,35.6299996 31.9116419,35.3379471 C31.9104724,35.2402261 31.9011165,35.1547202 31.8753878,35.0880922 C31.8519981,35.0214643 31.7420664,34.8038129 31.5771688,34.689435 C31.5362368,34.6616733 31.4917963,34.639464 31.4438474,34.6272488 C31.3000006,34.591714 31.1292556,34.6505687 30.9444767,34.9115281 C30.8965278,34.9781561 30.8450704,35.0792085 30.8286976,35.1880342 C30.8123248,35.2968598 30.8286976,35.4134587 30.921087,35.5111797 C30.9737139,35.5678135 31.0146459,35.6322205 31.046222,35.7010694 C31.0766287,35.7699183 31.0976795,35.843209 31.1082048,35.9198312 C31.1678486,36.3773432 30.839223,36.9259133 30.112972,37.0780472 C29.7937023,37.1435647 29.4966527,37.1879833 29.220654,37.2090822 C28.3926577,37.2712683 27.7599656,37.1280182 27.3401201,36.7771109 C27.0582739,36.5439131 27.2921712,35.550046 27.5319158,34.6938768 C25.812771,34.067574 25.4642641,32.8316254 25.4642641,32.8316254 C25.8513641,33.0326198 26.329684,33.4834689 26.4021921,33.2169571 C26.4747002,32.9526662 23.7743565,31.3113976 25.4911623,28.393093 C25.4069593,30.139856 26.2735486,30.3974841 26.4337683,30.4152515 C26.5928184,30.4341294 26.5518863,30.1931583 26.4583275,29.813379 C27.0278672,29.9743965 27.4629162,30.4585597 27.7786775,30.8538856 C27.7927113,30.7972518 27.7997282,30.7328448 27.813762,30.6773215 C27.7962197,30.4219143 27.8511856,30.0987687 27.9599478,29.7534138 C28.157591,29.1348843 28.537674,28.4552792 28.9855873,27.9589008 C28.8651302,27.9033776 28.7551984,27.8467438 28.669826,27.7934414 C26.9729014,26.7162895 24.2971168,23.910142 27.3412896,20.127895 C27.5003397,19.9313426 27.6710847,19.7514471 27.8546941,19.5859876 C27.5670004,16.1801886 29.6252962,17.5249629 30.541004,18.2800797 C32.0391159,17.9713702 33.6822441,18.1457133 35.0598989,18.6898416 C36.0984027,17.9946899 38.068987,17.0541253 37.4678711,20.3966278 C37.4678711,20.3966278 38.713374,24.7496543 35.606049,27.07497 C35.0622379,27.482511 34.5055624,27.7823368 33.9570734,27.9966567 C33.9944969,28.0555114 34.0132087,28.0965986 34.0225646,28.1232498 C34.0342594,28.1365754 34.0447848,28.149901 34.0576492,28.1643371 C34.9698484,28.3497849 35.1101868,29.046047 35.1101868,29.046047 C35.1043394,29.2037332 35.1300681,29.3647508 35.1686611,29.5824021 C35.2528641,29.7023324 35.3370671,29.8233732 35.4236091,29.9544082 C35.4820834,30.042135 35.565117,30.1454083 35.6504895,30.2497921 C36.0831994,30.4674434 36.6071292,30.514083 36.6153156,30.5151934 C36.6913322,30.5085307 36.7825522,30.5262981 36.8328401,30.5362923 C37.0737542,30.5818214 37.559091,30.5729377 37.6444635,30.9771473 C37.6830566,31.1603742 37.5438877,31.2603161 37.4514983,31.3524848 C37.3719732,31.4302174 37.4327865,31.5779094 37.5286844,31.6367641 Z"/>
      <path d="M13.0594146,0.526812992 C14.0912356,-0.0183003864 16.2807752,0.171127874 16.9612116,0.352966113 C17.1725102,0.165308781 17.7374961,-0.247086588 18.1832571,0.236292317 C18.6980048,0.795324237 17.7524356,1.74137826 17.7524356,1.74137826 L17.7435493,1.7281174 C17.9065963,2.49666505 17.9936555,3.46135651 18.0636934,4.2667471 C18.1732926,5.5270665 18.8187136,7.26410511 19.0404253,7.83146304 C19.0473126,7.82154811 19.0542641,7.81164901 19.06128,7.80176627 C19.06128,7.80176627 23.5614045,11.0350115 24.5152859,12.7116316 C25.2993121,14.0895055 24.8425676,14.8814726 24.1652186,15.9117747 C23.6100825,16.7558777 24.3785732,16.5820918 24.7493545,16.7542226 C25.2734196,16.9983504 25.6276296,19.3941131 23.5334405,19.863335 C22.4751566,20.100453 21.4814079,19.59558 20.7187319,18.8794909 C20.8135316,19.214211 20.9133987,19.5581612 21.0185889,19.9115372 C21.8448012,22.6868737 22.3942685,27.2669585 23.381379,30.8499491 C23.958199,32.9517207 25.1512592,34.0291126 25.1512592,35.3014017 C25.1512592,36.9993463 23.2478335,37.8452003 20.4916473,37.527128 C18.9220853,37.3462634 18.3259575,36.6368375 18.0636934,34.6652571 C17.7732722,32.4909837 14.6494336,31.932798 13.0758492,31.8673126 C10.5400935,31.7612885 7.23685346,33.2666746 7.10491693,34.8562564 C7.0003331,36.1308843 7.16284029,37.4811322 4.67696307,37.9091266 C1.72367659,38.4181981 0.0833194217,37.1529253 0.0833194217,36.0014725 C0.0833194217,35.3162139 0.907118213,33.1567526 2.02214275,30.5505869 C3.81374422,26.3548394 6.35513132,20.9975045 7.43395376,18.7499497 C8.27597867,16.9953522 8.85457702,14.9367385 9.32583101,13.0885875 C8.34293836,12.4192812 7.21362699,11.4004922 6.16444016,9.75922245 C5.71950726,9.05867391 4.96568208,6.67603047 4.79122997,4.50977869 C4.35429946,2.41747371 4.697602,0.170269654 6.89985984,0.0145921995 C8.24026023,-0.0827062095 8.34669202,1.32539637 7.98578421,3.16550388 C7.98098278,3.17562291 7.98098278,3.18496356 7.98098278,3.19508259 C7.92016461,5.00950332 8.0962172,6.15139745 8.16023632,6.34443749 C8.5779611,7.06211056 9.46782691,7.64278746 10.1784392,8.04365691 C10.4087518,8.07902905 10.6357856,8.09122176 10.8480741,8.09209696 C11.4231483,6.5873629 11.7670384,3.57252813 12.2445934,1.87518869 C12.0230648,1.61372411 11.5058657,0.910453658 11.9235773,0.467102706 C12.323814,0.0420950113 12.8095204,0.324970234 13.0594146,0.526812992 L13.0594146,0.526812992 Z"/>
    </g>
    <g transform="translate(229 77)">
      <path fill="#FFF" fill-rule="nonzero" d="M12.8239437,0 L25.0550983,40.9273253 L25.0550983,40.9273253 C25.3713779,41.9856452 24.7698353,43.0999782 23.7115153,43.4162577 C23.5256938,43.4717906 23.3327828,43.5 23.1388406,43.5 L2.5090467,43.5 L2.5090467,43.5 C1.40447721,43.5 0.509046705,42.6045695 0.509046705,41.5 C0.509046705,41.3060578 0.537256095,41.1131469 0.592788981,40.9273253 L12.8239437,0 Z" transform="translate(.5)"/>
      <g stroke="#C2E8FF" stroke-linecap="round" stroke-width="3">
        <polygon stroke-linejoin="round" points="13.5 0 27.25 42.75 .25 42.75"/>
        <path d="M13.5,1.79321289 C13.5,32.0130517 13.5,47.4986474 13.5,48.25 C13.5,47.4986474 13.5,32.0130517 13.5,1.79321289 Z"/>
        <path stroke-linejoin="round" d="M7.82394366 21C11.4906103 24.539346 13.3239437 26.3726794 13.3239437 26.5 13.3239437 26.3726794 11.4906103 24.539346 7.82394366 21zM13.8239437 34C18.4906103 28.539346 20.8239437 25.8726794 20.8239437 26 20.8239437 25.8726794 18.4906103 28.539346 13.8239437 34z"/>
      </g>
    </g>
    <g transform="translate(247 93)">
      <path fill="#FFF" fill-rule="nonzero" d="M10.4209988,4.29236217 L16.259296,24.443436 L16.259296,24.443436 C16.5666778,25.5043744 15.9557995,26.613617 14.8948612,26.9209988 C14.7139843,26.9734036 14.5266126,27 14.3382972,27 L2.6617028,27 L2.6617028,27 C1.5571333,27 0.661702805,26.1045695 0.661702805,25 C0.661702805,24.8116846 0.688299176,24.6243129 0.74070397,24.443436 L6.57900117,4.29236217 L6.57900117,4.29236217 C6.88638297,3.23142381 7.99562563,2.62054553 9.05656399,2.92792733 C9.71521023,3.11875451 10.2301717,3.63371594 10.4209988,4.29236217 Z" transform="translate(1)"/>
      <g stroke="#C2E8FF" stroke-linecap="round" stroke-width="3">
        <polygon stroke-linejoin="round" points="9.75 .162 18.75 26.25 .75 26.25"/>
        <path d="M9.75,2.34765625 C9.75,21.5228147 9.75,31.323596 9.75,31.75 C9.75,31.323596 9.75,21.5228147 9.75,2.34765625 Z"/>
        <path stroke-linejoin="round" d="M10.5,14.6619718 C13.1666667,17.8925806 14.5,19.5592472 14.5,19.6619718 C14.5,19.5592472 13.1666667,17.8925806 10.5,14.6619718 Z" transform="matrix(-1 0 0 1 25 0)"/>
      </g>
    </g>
    <g stroke="#8CD3F8" stroke-linecap="round" stroke-width="3" transform="translate(23 124)">
      <path d="M13.5 1.5L253.5 1.5M.5 1.5L8.5 1.5"/>
    </g>
    <g stroke="#8CD3F8" stroke-linecap="round" stroke-width="3" transform="translate(78 77)">
      <path d="M.5 48.5L91.5.5M42.7433022 23.2338605L48.6132423 29.2056008M49.5 47.7338605L49.5 18"/>
    </g>
    <g transform="translate(74 115)">
      <g fill="#C2E8FF" fill-rule="nonzero">
        <path d="M29.9966668,10.0339286 C29.9966668,6.40817922 27.0574161,3 23.4316667,3 C19.8059173,3 16.8666667,6.40817922 16.8666667,10.0339286 L29.9966668,10.0339286 Z"/>
        <path d="M20,10.5 C20,5.08760945 15.6123905,0 10.2,0 C4.78760945,0 0.4,5.08760945 0.4,10.5 L20,10.5 Z"/>
      </g>
      <g stroke="#8CD3F8" stroke-linecap="round" stroke-linejoin="round" stroke-width="3">
        <path d="M29.9966668,10.0339286 C29.9966668,6.40817922 27.0574161,3 23.4316667,3 C21.5699604,3 19.889249,3.89856443 18.6945001,5.26376288 C19.3666992,6.86206055 19.9638672,8.75830078 20.0039063,10.0339286 C22.2245197,10.0339286 25.5554399,10.0339286 29.9966668,10.0339286 Z"/>
        <path d="M20,10.5 C20,5.08760945 15.6123905,0 10.2,0 C4.78760945,0 0.4,5.08760945 0.4,10.5 L20,10.5 Z"/>
      </g>
    </g>
    <path fill="#C2E8FF" fill-rule="nonzero" d="M5.16562136,0 C5.16562136,0 4.46525534,2.36407894 2.43391404,4.26829268 C0.402572734,6.17250642 0.0825025846,8.1427283 0.214401843,9.2195122 C0.346301101,10.2962961 0.41008263,11.0010198 1.40952379,12.1219512 C2.25865648,13.0624403 3.9704994,13.1463415 3.9704994,13.1463415 C3.9704994,13.1463415 3.24364479,12.390447 3.28757257,11.2682927 C3.24364479,10.2472129 3.7997677,9.56097561 3.7997677,9.56097561 C3.7997677,9.56097561 4.00763652,11.0462068 5.16562136,12.1219512 C6.32360619,13.1976956 6.36074331,14 6.36074331,14 C6.36074331,14 8.91009067,13.7227112 10.2875726,11.4390244 C10.8404977,10.2820779 10.9704994,9.79919244 10.9704994,8.53658537 C11.0238154,5.93249267 9.7443106,4.58528601 9.60464575,4.43902439 C9.55515455,4.74099471 9.14736915,5.57823248 8.75098721,6.14634146 C8.35460527,6.71445044 7.72659696,7.17073171 7.72659696,7.17073171 C7.72659696,7.17073171 8.06397029,6.55108556 7.89732867,4.6097561 C7.73923891,1.92935299 5.16562136,0 5.16562136,0 Z" transform="translate(155 100)"/>
    <path stroke="url(#notask-a)" stroke-linecap="round" stroke-width="3" d="M23.7996602,31.4356223 C23.7996602,31.4356223 22.6617094,27.897776 27.5274409,27.897776 C32.3931723,27.8977761 30.322405,27.8977766 34.262549,27.897776 C38.202693,27.8977755 37.9098998,22.9770716 34.3897938,22.9447913 L13.8955018,22.9447913 C13.8955018,22.9447913 5.24336475,22.9770716 3.19425931,22.9447913 C-1.06575805,22.9770716 -1.06374804,16.576668 3.19425931,16.576668 L45.5238111,16.576668 C52.2231936,16.576668 52.0510731,8.76045331 45.6532845,8.79340616 C39.2554959,8.76045331 24.7216273,8.79340616 18.4529659,8.79340616 C16.6090318,8.79340616 13.3178431,8.59009502 13.3178431,4.54799064 C13.3178431,2.06038659 13.2135467,1.44055839 13.2135467,0.302575107" transform="translate(136.5 40)"/>
    <g transform="translate(151 79)">
      <polygon fill="#C2E8FF" fill-rule="nonzero" points=".573 .5 9.907 .5 10.466 14.5 .012 14.5" transform="translate(4 8)"/>
      <path stroke="#8CD3F8" stroke-linecap="round" stroke-linejoin="round" stroke-width="3" d="M16,17 C17.6568542,17 19,15.6568542 19,14 C19,12.3431458 17.6568542,11 16,11 C15.2907409,11 14.6389686,11.2461299 14.1254365,11.6576361 L14.2409354,16.4304299 C14.7351362,16.7887377 15.3428966,17 16,17 Z"/>
      <polygon stroke="#8CD3F8" stroke-linecap="round" stroke-linejoin="round" stroke-width="3" points="4.573 8.5 13.907 8.5 14.466 22.5 4.012 22.5"/>
      <path stroke="#8CD3F8" stroke-linecap="round" stroke-linejoin="round" stroke-width="3" d="M9.5,-6.6610671e-16 L9.5,-6.6610671e-16 L9.5,-4.4408921e-16 C11.1568542,-7.48451865e-16 12.5,1.34314575 12.5,3 L12.5,8.5 L6.5,8.5 L6.5,3 L6.5,3 C6.5,1.34314575 7.84314575,-1.39726555e-16 9.5,-4.4408921e-16 Z"/>
      <path fill="#8CD3F8" fill-rule="nonzero" d="M4.05004883,10.9631348 L1.64796074,10.9631348 L1.64796074,10.9631348 C1.09567599,10.9631348 0.647960736,11.41085 0.647960736,11.9631348 C0.647960736,12.1173552 0.683630425,12.2694859 0.752181183,12.4076334 L3.04345703,17.0251465 L4.05004883,10.9631348 Z"/>
    </g>
    <g transform="translate(148 116)">
      <g fill="#C2E8FF" fill-rule="nonzero">
        <ellipse cx="3.5" cy="3.974" rx="3.5" ry="3.515"/>
        <ellipse cx="12.5" cy="3.974" rx="3.5" ry="3.515"/>
        <ellipse cx="21" cy="3.974" rx="3.5" ry="3.515"/>
      </g>
      <g stroke="#8CD3F8" stroke-width="3">
        <ellipse cx="3.5" cy="3.974" rx="3.5" ry="3.515"/>
        <ellipse cx="12.5" cy="3.974" rx="3.5" ry="3.515"/>
        <ellipse cx="21" cy="3.974" rx="3.5" ry="3.515"/>
      </g>
    </g>
    <g transform="translate(180 88)">
      <polygon fill="#C2E8FF" fill-rule="nonzero" points="10 0 32 0 22 26 0 26" transform="translate(18 2)"/>
      <polygon fill="#FFF" fill-rule="nonzero" points="3 0 25 0 22 6 0 6" transform="translate(25)"/>
      <g stroke="#8CD3F8" stroke-linecap="round" stroke-linejoin="round" stroke-width="3" transform="translate(0 1)">
        <polygon points="28 .5 50 .5 40 26.5 18 26.5"/>
        <path d="M26 16.5L46 16.5M6 16.5L20 16.5M0 26.5L40 26.5M10.1822903 17L4.20316151 32.4435937 4.20316151 32.4435937C3.60496307 33.9886907 4.37257598 35.7261749 5.91767295 36.3243734 6.26312766 36.4581193 6.63036549 36.5267278 7.00080704 36.5267278L18.5128094 36.5267278 18.5128094 36.5267278C21.0019646 36.5267278 23.2326275 34.9898222 24.1192662 32.6639319L30.0607187 17.0779156"/>
        <path d="M33.1822903,17 L27.2031615,32.4435937 L27.2031615,32.4435937 C26.6049631,33.9886907 27.372576,35.7261749 28.9176729,36.3243734 C29.2631277,36.4581193 29.6303655,36.5267278 30.000807,36.5267278 L41.5128094,36.5267278 L41.5128094,36.5267278 C44.0019646,36.5267278 46.2326275,34.9898222 47.1192662,32.6639319 L49.2416902,27.096247" transform="matrix(-1 0 0 1 76.242 0)"/>
      </g>
    </g>
  </g>
</svg>
