<svg xmlns="http://www.w3.org/2000/svg" viewBox="0 0 279.61 111.23"><defs><style>.cls-1{fill:#838781;}</style></defs><g id="Layer_2" data-name="Layer 2"><g id="Layer_1-2" data-name="Layer 1"><path class="cls-1" d="M71.92.12,68.34,22c-10.63,7.13-19.79,7.42-28,7.42L45.17.06,27.6,0,22.85,27.68C13.36,25.63,8.62,21,8.62,21L0,37.66s9.69,6.71,19.81,7.85L15.46,71.25l17.8-.16L37.4,46.15a52.76,52.76,0,0,0,28.16-8l-5.39,33,17.83,0L89.84.12Z"/><path class="cls-1" d="M231.93,45.27c.19-7.38,4.29-13.42,9.86-15.58,3-1.14,6.54-1.18,8.85.24,3,1.82,2.64,6.24-.62,10-3.09,3.59-11.16,5.59-18.09,5.3m41.76,1.9c-.66.72-1.34,1.44-2.05,2.12-6.67,6.38-13.59,10.31-26,10.31-8.64,0-11.12-4.94-11.12-4.94a65.75,65.75,0,0,0,12-1.1,34.22,34.22,0,0,0,14.69-7.38c9.51-7.75,9.59-20.71,1.13-27a21.5,21.5,0,0,0-10.07-4,29,29,0,0,0-16.71,2.44,32.84,32.84,0,0,0-18.9,27.43c-.91,11,7.17,28.18,32.15,26.79,11.5-.64,22.15-4.59,30.79-13Z"/><path class="cls-1" d="M192,53.84c-5.88,5.31-11.8,6.57-17.09,4.51a15.11,15.11,0,0,1-8.52-9s4-14.71,16-19.9c6.9-2.36,12.14.19,14.41,5.1s.11,14.82-4.79,19.25M110.17,30.58c2.82-1.42,5.57-1.73,8.09-.55,3.23,1.51,3.48,5.92.69,10-2.64,3.85-9.66,6.54-16.69,6.94-.78-7.32,2.57-13.7,7.91-16.39m95.68-11c-7.87-7-23.29-5.9-32.22,1-4.83,3.72-6.12,6.57-6.12,6.57L172.58.22S161.8.27,156.45.27c0,.11-3.3,35.1-14.83,48.42a32.18,32.18,0,0,1-22.76,11C111.24,60,107.49,56,107.49,56a44.45,44.45,0,0,0,10.43-2c4.6-1.66,9-3.86,12.64-7.86,8.71-9.66,8.31-22.59-1-28a23,23,0,0,0-10.68-3,29.46,29.46,0,0,0-16.53,4.06C91,25.87,86.09,38.1,86.6,48.89c.52,11,11.58,25.36,35.88,22.77C132.41,70.6,140,66,146.67,59.25c-.64,4.08-2.07,12-2.07,12h15.07l2.48-7.58c4.14,5.32,10.82,10,26,7a31.53,31.53,0,0,0,18-10.87A37.6,37.6,0,0,0,214,40.53c1-7.62-1.78-16.53-8.16-21"/><polygon class="cls-1" points="13.36 91.48 17.33 91.48 18.13 102.53 23.43 91.48 27.64 91.48 29.13 102.53 33.75 91.48 38.14 91.48 30.73 107.01 26.29 107.01 24.7 96.85 19.37 107.01 15.06 107.01 13.36 91.48"/><path class="cls-1" d="M45.93,99.69a1.85,1.85,0,0,0-2.06-1.64,2.74,2.74,0,0,0-2.66,1.64Zm-8.81,2c0-3.62,2.64-6.64,7-6.64,3.57,0,5.46,2.2,5.46,4.75a8.1,8.1,0,0,1-.11,1.18l-.22,1.31H40.7a2.07,2.07,0,0,0,2.21,1.8A3,3,0,0,0,45.49,103l2.79,1.75a6.28,6.28,0,0,1-5.52,2.53,5.31,5.31,0,0,1-5.64-5.52"/><polygon class="cls-1" points="53.52 91.26 57.38 91.26 54.61 107.01 50.75 107.01 53.52 91.26"/><path class="cls-1" d="M58,101.66c0-3.72,2.53-6.59,7.21-6.59,2.55,0,4.19,1.16,4.93,3L66.82,99.6a1.84,1.84,0,0,0-1.91-1.42c-1.73,0-3,1.38-3,3.55a2.12,2.12,0,0,0,2,2.4,2.61,2.61,0,0,0,2.37-1.42l2.87,1.68c-1.29,2.07-2.78,2.84-5.59,2.84A5.41,5.41,0,0,1,58,101.66"/><path class="cls-1" d="M80.57,100.62a2.23,2.23,0,0,0-2.24-2.44,3.17,3.17,0,0,0-3.19,3.42,2.33,2.33,0,0,0,2.24,2.53c2.09,0,3.19-1.51,3.19-3.51m-9.18,1.31c0-4.11,2.84-6.86,7.12-6.86,3.37,0,5.81,2.09,5.81,5.24,0,4-2.88,6.92-7.16,6.92-3.49,0-5.77-2.26-5.77-5.3"/><path class="cls-1" d="M105.12,98.29A11.3,11.3,0,0,1,105,100l-1.22,7H99.88l1.24-7a3.86,3.86,0,0,0,.09-.77A1.14,1.14,0,0,0,100,98.09c-1.22,0-1.93.91-2.17,2.29L96.64,107H92.78L94,100a3.13,3.13,0,0,0,.09-.71,1.12,1.12,0,0,0-1.22-1.24c-1.22,0-1.93.91-2.17,2.29L89.54,107H85.68L87.74,95.3h3.51l.22.91a5,5,0,0,1,3.29-1.14,3.15,3.15,0,0,1,3.08,1.62,4.48,4.48,0,0,1,3.75-1.62,3.27,3.27,0,0,1,3.53,3.22"/><path class="cls-1" d="M116,99.69a1.86,1.86,0,0,0-2.06-1.64,2.75,2.75,0,0,0-2.67,1.64Zm-8.81,2c0-3.62,2.64-6.64,7-6.64,3.57,0,5.46,2.2,5.46,4.75a8.1,8.1,0,0,1-.11,1.18l-.22,1.31h-8.52a2.07,2.07,0,0,0,2.21,1.8,3,3,0,0,0,2.58-1.16l2.79,1.75a6.28,6.28,0,0,1-5.52,2.53,5.31,5.31,0,0,1-5.64-5.52"/><path class="cls-1" d="M128,103.84a5.15,5.15,0,0,1,.09-1l.82-4.59h-1.88l.51-2.93h1.88l.69-3.82H134l-.69,3.82h2.8l-.51,2.93h-2.8l-.8,4.48a1.62,1.62,0,0,0,0,.31c0,.69.47,1.09,1.29,1.09a3.47,3.47,0,0,0,1.33-.27L134,107a11.22,11.22,0,0,1-2.44.22c-2.33,0-3.58-1.33-3.58-3.39"/><path class="cls-1" d="M145.78,100.62a2.24,2.24,0,0,0-2.24-2.44,3.17,3.17,0,0,0-3.2,3.42,2.33,2.33,0,0,0,2.24,2.53c2.09,0,3.2-1.51,3.2-3.51m-9.19,1.31c0-4.11,2.84-6.86,7.12-6.86,3.38,0,5.82,2.09,5.82,5.24,0,4-2.89,6.92-7.17,6.92-3.48,0-5.77-2.26-5.77-5.3"/><path class="cls-1" d="M157.27,108.14h1.8a.57.57,0,0,0,.62-.4,1.45,1.45,0,0,0,0-.73L157.34,95.3h3.75l1.44,8.27L167,95.3h4.06l-6.77,12.31c-1.59,2.89-2.9,3.62-4.77,3.62h-2.77Z"/><path class="cls-1" d="M180.09,100.62a2.24,2.24,0,0,0-2.25-2.44,3.17,3.17,0,0,0-3.19,3.42,2.33,2.33,0,0,0,2.24,2.53c2.09,0,3.2-1.51,3.2-3.51m-9.19,1.31c0-4.11,2.84-6.86,7.12-6.86,3.37,0,5.82,2.09,5.82,5.24,0,4-2.89,6.92-7.17,6.92-3.49,0-5.77-2.26-5.77-5.3"/><path class="cls-1" d="M198.79,95.3,196.73,107h-3.42l-.26-1.11c-.58.71-1.54,1.33-3.64,1.33a3.26,3.26,0,0,1-3.58-3.37,10.81,10.81,0,0,1,.16-1.6l1.22-7h3.86l-1.22,7a4,4,0,0,0-.09.79c0,.67.42,1.14,1.33,1.14,1.38,0,2.44-1,2.84-3.24l1-5.68Z"/><path class="cls-1" d="M210,95.32l-.62,3.48a3.76,3.76,0,0,0-1.62-.4c-1.91,0-2.82,1.47-3.2,3.64l-.88,5h-3.86l2.06-11.71h3.48l.27,1a3.68,3.68,0,0,1,2.84-1.27,4.47,4.47,0,0,1,1.53.25"/><path class="cls-1" d="M225.71,100.69a2.33,2.33,0,0,0-2.4-2.49,3.17,3.17,0,0,0-3.21,3.42,2.37,2.37,0,0,0,2.48,2.53c1.87,0,3.13-1.35,3.13-3.46m3.86-.36c0,4.42-2.62,6.9-6.74,6.9a4.67,4.67,0,0,1-3.27-1.15L219,107h-3.46l2.77-15.75h3.86l-.88,5a4.67,4.67,0,0,1,3.48-1.22c2.68,0,4.79,2.11,4.79,5.26"/><path class="cls-1" d="M240.51,100.62a2.23,2.23,0,0,0-2.24-2.44,3.17,3.17,0,0,0-3.19,3.42,2.32,2.32,0,0,0,2.24,2.53c2.08,0,3.19-1.51,3.19-3.51m-9.18,1.31c0-4.11,2.84-6.86,7.12-6.86,3.37,0,5.81,2.09,5.81,5.24,0,4-2.88,6.92-7.16,6.92-3.49,0-5.77-2.26-5.77-5.3"/><path class="cls-1" d="M255.49,100.73a2.35,2.35,0,0,0-2.39-2.55,3.18,3.18,0,0,0-3.24,3.42,2.37,2.37,0,0,0,2.39,2.53,3.23,3.23,0,0,0,3.24-3.4m5.22-9.47L257.93,107h-3.46l-.18-.84a4.91,4.91,0,0,1-3.35,1.06c-2.88,0-5-2.19-5-5.32a6.47,6.47,0,0,1,6.84-6.84A4.28,4.28,0,0,1,256,96.29l.89-5Z"/><path class="cls-1" d="M261.82,108.14h1.8a.57.57,0,0,0,.62-.4,1.47,1.47,0,0,0-.05-.73l-2.3-11.71h3.75l1.44,8.27,4.46-8.27h4.06l-6.77,12.31c-1.6,2.89-2.91,3.62-4.77,3.62h-2.77Z"/></g></g></svg>