<svg xmlns="http://www.w3.org/2000/svg" width="176.856" height="136.786" viewBox="0 0 176.856 136.786">
  <g id="Group_4829" data-name="Group 4829" transform="translate(60 17.548)">
    <path id="Path_10870" data-name="Path 10870" d="M-60,15.274c.324-1.569.578-3.156.984-4.7C-55.18-4.01-45.878-13.158-31.275-16.664c15.837-3.8,33.3,5.007,40.1,19.94,1.126,2.473.508,4.7-1.6,5.78-2.029,1.035-4.224.327-5.477-2.07A31.446,31.446,0,0,0-7.282-3.96,28.089,28.089,0,0,0-48.723,5.666,27.979,27.979,0,0,0-37.059,43.381,22.661,22.661,0,0,1-34.977,44.6a3.934,3.934,0,0,1,1.368,5.419,3.968,3.968,0,0,1-5.273,1.5A35.823,35.823,0,0,1-54.472,37.8a34.986,34.986,0,0,1-5.235-14.836A3.433,3.433,0,0,0-60,22.184Z" transform="translate(0)" fill="#17b5c8"/>
    <path id="Path_10871" data-name="Path 10871" d="M14.474,80.987c-.583-.616-1.035-1.115-1.511-1.592Q-13.116,53.318-39.2,27.251a17.307,17.307,0,0,1-5.339-10.711c-.8-7.481,5.6-15.468,13.091-16.272A15.964,15.964,0,0,1-17.7,5.195c4.052,4.091,8.137,8.149,12.213,12.217.4.4.824.771,1.373,1.283C-2.3,13.7.934,10.25,5.883,8.619A15.358,15.358,0,0,1,19.8,10.752C26.446-.686,32.785-2.781,44.1,2.712a16.439,16.439,0,0,1,5.053-7.44c6.345-5.08,15.276-4.781,20.8,1.189,10.636,11.492,21.309,22.967,31.5,34.853,8.451,9.862,11.34,21.632,9.473,34.517A42.583,42.583,0,0,1,99.017,89.843c-4.686,4.837-9.437,9.619-14.335,14.24-8.611,8.127-19.009,11.878-30.772,11.9q-37.053.051-74.1,0c-7.444,0-12.8-4.934-13.027-11.9-.205-6.461,4.124-13.394,9.973-16.187,4.149-1.981,8.669-2.2,13.073-2.932,7.659-1.277,15.341-2.413,23.01-3.615C13.324,81.274,13.8,81.138,14.474,80.987Zm4.246,26.942c11.629,0,23.259-.026,34.888.008,10.063.027,18.871-3.175,26.146-10.194,4.639-4.477,9.269-8.978,13.626-13.725a38.172,38.172,0,0,0,6.06-8.534c7-13.988,4.768-29.42-5.722-41.027Q79.185,18.378,64.547,2.391a10.368,10.368,0,0,0-.852-.853A7.319,7.319,0,0,0,53.134,11.57c.459.59.972,1.143,1.38,1.766a3.646,3.646,0,0,1,.018,4.218,3.365,3.365,0,0,1-3.8,1.742,7.431,7.431,0,0,1-3.048-1.733c-2.82-2.627-5.418-5.5-8.3-8.058a7.125,7.125,0,0,0-9.72.4,7.242,7.242,0,0,0-.5,9.862c1.216,1.451,2.63,2.737,3.953,4.1,1.721,1.774,3.541,3.467,5.133,5.353a3.8,3.8,0,0,1-.359,5.169,3.88,3.88,0,0,1-5.057.359,11.763,11.763,0,0,1-1.551-1.361c-5.014-5-10-10.031-15.034-15.011-3.171-3.138-7.346-3.391-10.383-.721-3.371,2.965-3.4,7.667.011,11.118C10.858,33.807,15.894,38.786,20.891,43.8a10.678,10.678,0,0,1,1.539,1.848,3.871,3.871,0,0,1-.556,4.764,3.949,3.949,0,0,1-4.9.545,13.064,13.064,0,0,1-1.956-1.681q-19-18.979-37.99-37.973a18.218,18.218,0,0,0-1.91-1.744A7.284,7.284,0,0,0-36.443,14.5c-.375,2.915.915,5.065,2.889,7.035q29.4,29.345,58.768,58.72c1.357,1.354,2.236,2.809,1.63,4.763-.614,1.979-2.226,2.635-4.093,2.923q-9.208,1.422-18.411,2.869c-7.213,1.139-14.44,2.2-21.629,3.487a9.609,9.609,0,0,0-7.84,9.091,3.936,3.936,0,0,0,3.615,4.421,16.479,16.479,0,0,0,2.237.111Q-.28,107.932,18.72,107.928Z" transform="translate(5.387 3.239)" fill="#17b5c8"/>
  </g>
</svg>
